<svg width="821" height="147" viewBox="0 0 821 147" fill="none" xmlns="http://www.w3.org/2000/svg">
<path fill-rule="evenodd" clip-rule="evenodd" d="M109.929 10.2126C117.616 14.4951 127.734 22.93 132.411 28.9608C170.068 77.4913 134.804 146.891 72.9148 146.053C14.7968 145.267 -18.4772 82.9472 12.9229 33.696C33.1949 1.89741 76.269 -8.53042 109.929 10.2126ZM76.0669 75.2617C50.4119 99.1796 29.0507 119.603 28.5967 120.644C27.0666 124.154 47.685 135.568 60.729 138.435C113.543 150.044 157.562 94.5432 134.497 45.4325C130.97 37.9187 126.875 31.7733 125.398 31.7733C123.923 31.7733 101.724 51.3437 76.0669 75.2617Z" fill="#343434"/>
<path fill-rule="evenodd" clip-rule="evenodd" d="M448.641 71.8065L448.412 114.138L439.802 114.389L431.193 114.64V72.0574V29.4751H440.032H448.87L448.641 71.8065ZM554.813 43.0317V56.5882L559.372 54.2387C568.161 49.7073 581.122 50.8549 587.894 56.7628C589.488 58.1543 591.735 61.3671 592.889 63.9043C594.894 68.3173 594.996 69.5087 595.273 91.5465L595.56 114.577H586.666H577.771L577.721 95.0558C577.667 74.0375 577.129 70.7107 573.328 67.9129C570.4 65.7573 563.798 65.6143 560.361 67.6321C555.44 70.5203 555.291 71.2152 554.813 93.5205L554.371 114.138L545.762 114.389L537.153 114.64V72.0574V29.4751H545.983H554.813V43.0317ZM778.239 53.8211C778.267 77.8741 778.287 78.1408 779.933 75.9738C780.85 74.7675 785.514 69.0429 790.298 63.2525L798.997 52.7245L809.354 52.4771C815.051 52.3411 819.71 52.5385 819.708 52.9157C819.707 53.293 814.202 59.9283 807.476 67.6602L795.248 81.7186L807.883 97.4896C814.832 106.164 820.536 113.557 820.556 113.919C820.577 114.28 816.044 114.577 810.481 114.577H800.367L792.237 104.642L784.106 94.7067L781.159 97.9484C778.36 101.027 778.211 101.529 778.211 107.883V114.577H769.381H760.551V72.0258V29.4751H769.381H778.211L778.239 53.8211ZM320.153 54.6844C327.073 57.9025 332.987 63.4586 336.428 69.9746C338.655 74.1911 338.902 75.5316 338.91 83.4312C338.918 90.8578 338.604 92.8415 336.863 96.3552C333.594 102.949 327.609 108.905 321.001 112.137C315.481 114.837 314.541 115.015 305.826 115.015C297.612 115.015 295.956 114.745 291.525 112.681C284.505 109.411 278.966 104.022 275.565 97.1509C272.971 91.9106 272.695 90.5937 272.695 83.4443C272.695 76.4809 273.003 74.9114 275.273 70.3185C281.355 58.0113 293.08 51.1637 307.172 51.6883C312.922 51.9024 315.396 52.4735 320.153 54.6844ZM396.974 53.9799C404.015 56.6707 410.981 63.2051 414.604 70.5177C417.126 75.608 417.486 77.2047 417.495 83.3899C417.505 89.483 417.132 91.2307 414.774 96.1525C411.444 103.103 406.093 108.56 399 112.239C393.96 114.854 393.13 115.006 383.953 115.011C374.988 115.015 373.833 114.817 368.953 112.436C341.623 99.1039 344.879 62.2356 374.24 52.585C379.369 50.8987 390.736 51.5962 396.974 53.9799ZM508.232 54.0177C513.662 56.0522 521.449 62.4445 524.18 67.1101L525.776 69.8369L523.297 70.8046C521.934 71.3362 518.447 72.6707 515.548 73.77L510.278 75.7685L507.159 72.2864C502.976 67.6155 496.833 65.8906 490.343 67.5628C482.806 69.5052 478.875 74.9131 478.875 83.339C478.875 89.3093 479.972 92.2808 483.526 95.9419C489.938 102.547 502.044 101.809 508.291 94.4321L510.703 91.5842L517.746 94.4057C521.621 95.9577 524.791 97.6054 524.791 98.0669C524.791 98.5292 523.608 100.616 522.16 102.705C508.179 122.897 475.088 119.302 463.714 96.3552C461.997 92.8915 461.657 90.8253 461.657 83.8698C461.657 76.5713 461.955 74.9351 464.055 70.7098C468.276 62.2198 476.828 55.102 485.876 52.5516C491.438 50.9838 501.98 51.6752 508.232 54.0177ZM649.992 52.32C664.958 55.7495 673.74 66.4232 674.688 82.3345L675.145 90.0112H650.381C626.54 90.0112 625.635 90.0726 626.054 91.6685C626.693 94.0969 631.621 98.3985 635.076 99.5443C642.016 101.845 650.793 100.169 655.558 95.6331L657.85 93.453L664.388 97.1465C667.985 99.1784 671.126 101.007 671.368 101.209C671.611 101.412 669.36 103.87 666.365 106.671C660.295 112.347 654.523 114.977 646.042 115.931C632.046 117.504 616.139 109.363 611.101 98.0484C607.104 89.0689 607.492 76.0352 612.004 67.7988C618.625 55.7118 635.244 48.9396 649.992 52.32ZM728.348 52.7683C731.238 53.5158 735.541 55.3644 737.911 56.8751C742.429 59.7554 749.366 67.6391 748.82 69.2701C748.644 69.7939 745.242 71.5196 741.26 73.1058L734.021 75.9887L731.261 72.8654C727.486 68.5928 723.944 66.9654 718.529 67.0136C711.383 67.0777 706.431 70.4177 703.64 77.0547C699.329 87.3072 705.91 99.0977 716.615 100.297C722.339 100.938 727.119 99.2723 731.14 95.2366L734.684 91.6807L741.657 94.4321C745.492 95.9446 748.761 97.3115 748.922 97.4685C749.462 97.9993 746.135 102.706 742.514 106.535C733.267 116.313 717.29 118.724 703.454 112.431C697.325 109.642 690.389 102.662 687.485 96.3604C684.134 89.0873 684.107 78.519 687.423 71.4336C694.701 55.8811 711.237 48.3395 728.348 52.7683ZM299.185 67.9813C292.896 70.866 289.031 76.9126 289.031 83.8698C289.031 93.5574 296.058 100.539 305.808 100.539C314.404 100.539 320.073 95.8218 321.858 87.1862C323.152 80.9176 321.686 75.7519 317.402 71.4959C312.299 66.4249 305.458 65.1045 299.185 67.9813ZM378.912 67.19C365.127 71.3187 363.052 92.5537 375.831 98.7003C380.632 101.009 386.926 101.082 391.273 98.8775C395.32 96.8254 397.178 94.833 398.93 90.6657C404.505 77.4083 392.357 63.163 378.912 67.19ZM639.581 66.9653C633.023 67.955 628.173 71.295 626.817 75.7545L626.216 77.7285H641.287C649.576 77.7285 656.357 77.3925 656.357 76.981C656.357 75.3307 652.219 70.2773 649.732 68.8902C646.73 67.2163 642.825 66.4758 639.581 66.9653Z" fill="#343434"/>
<path d="M195.798 113V38.8H232.05C241.378 38.8 248.374 40.5667 253.038 44.1C257.773 47.6333 260.14 52.2973 260.14 58.092C260.14 61.9787 259.186 65.3707 257.278 68.268C255.37 71.0947 252.755 73.2853 249.434 74.84C246.113 76.3947 242.297 77.172 237.986 77.172L240 72.826C244.664 72.826 248.798 73.6033 252.402 75.158C256.006 76.642 258.797 78.868 260.776 81.836C262.825 84.804 263.85 88.4433 263.85 92.754C263.85 99.114 261.341 104.096 256.324 107.7C251.307 111.233 243.922 113 234.17 113H195.798ZM212.864 100.068H232.898C237.35 100.068 240.707 99.3613 242.968 97.948C245.3 96.464 246.466 94.132 246.466 90.952C246.466 87.8427 245.3 85.546 242.968 84.062C240.707 82.5073 237.35 81.73 232.898 81.73H211.592V69.222H229.93C234.099 69.222 237.279 68.5153 239.47 67.102C241.731 65.618 242.862 63.392 242.862 60.424C242.862 57.5267 241.731 55.3713 239.47 53.958C237.279 52.474 234.099 51.732 229.93 51.732H212.864V100.068Z" fill="#343434"/>
</svg>
